<mxfile host="app.diagrams.net" modified="2023-09-19T00:53:59.774Z" agent="Mozilla/5.0 (Windows NT 10.0; Win64; x64) AppleWebKit/537.36 (KHTML, like Gecko) Chrome/116.0.0.0 Safari/537.36" etag="kOrj-rpedTF9z7xuDgpe" version="21.7.5" type="device">
  <diagram name="Page-1" id="HWuAZYa7vLfO5rIsiy_T">
    <mxGraphModel dx="3900" dy="2295" grid="1" gridSize="10" guides="1" tooltips="1" connect="1" arrows="1" fold="1" page="1" pageScale="1" pageWidth="850" pageHeight="1100" background="none" math="0" shadow="0">
      <root>
        <mxCell id="0" />
        <mxCell id="1" parent="0" />
        <mxCell id="aCHUNYjd5ONpfvqQWO-F-50" value="" style="group;strokeWidth=4;" vertex="1" connectable="0" parent="1">
          <mxGeometry x="-1160" y="-720" width="1811.7951173115862" height="1314" as="geometry" />
        </mxCell>
        <mxCell id="ft1NnIo1mKDG3LehBfM9-3" value="P 1.0" style="swimlane;childLayout=stackLayout;horizontal=1;startSize=50;horizontalStack=0;rounded=1;fontSize=14;fontStyle=0;strokeWidth=3;resizeParent=0;resizeLast=1;shadow=0;dashed=0;align=center;arcSize=4;whiteSpace=wrap;html=1;fillColor=#e1d5e7;strokeColor=#9673a6;" parent="aCHUNYjd5ONpfvqQWO-F-50" vertex="1">
          <mxGeometry x="883.0378035324329" width="197.60286512613885" height="198.3396226415094" as="geometry">
            <mxRectangle x="70" y="100" width="80" height="50" as="alternateBounds" />
          </mxGeometry>
        </mxCell>
        <mxCell id="ft1NnIo1mKDG3LehBfM9-15" value="&lt;b&gt;&lt;font style=&quot;font-size: 15px;&quot;&gt;Evaluating&lt;/font&gt;&lt;/b&gt;&lt;span id=&quot;docs-internal-guid-b16e1cdb-7fff-e0be-6e62-8dd086bc350d&quot;&gt;&lt;/span&gt;&lt;span id=&quot;docs-internal-guid-b16e1cdb-7fff-e0be-6e62-8dd086bc350d&quot;&gt;&lt;/span&gt;" style="text;html=1;align=center;verticalAlign=middle;resizable=0;points=[];autosize=1;" parent="ft1NnIo1mKDG3LehBfM9-3" vertex="1">
          <mxGeometry y="50" width="197.60286512613885" height="148.3396226415094" as="geometry" />
        </mxCell>
        <mxCell id="ft1NnIo1mKDG3LehBfM9-16" style="edgeStyle=orthogonalEdgeStyle;rounded=0;orthogonalLoop=1;jettySize=auto;html=1;strokeWidth=3;exitX=0.659;exitY=0.004;exitDx=0;exitDy=0;exitPerimeter=0;" parent="aCHUNYjd5ONpfvqQWO-F-50" source="ft1NnIo1mKDG3LehBfM9-4" target="ft1NnIo1mKDG3LehBfM9-15" edge="1">
          <mxGeometry relative="1" as="geometry" />
        </mxCell>
        <mxCell id="aCHUNYjd5ONpfvqQWO-F-174" style="edgeStyle=orthogonalEdgeStyle;rounded=0;orthogonalLoop=1;jettySize=auto;html=1;entryX=0.007;entryY=0.557;entryDx=0;entryDy=0;entryPerimeter=0;strokeWidth=3;" edge="1" parent="aCHUNYjd5ONpfvqQWO-F-50" source="aCHUNYjd5ONpfvqQWO-F-54">
          <mxGeometry relative="1" as="geometry">
            <mxPoint x="1491.3793362684032" y="602.6259245283022" as="targetPoint" />
          </mxGeometry>
        </mxCell>
        <mxCell id="aCHUNYjd5ONpfvqQWO-F-173" value="" style="group" vertex="1" connectable="0" parent="aCHUNYjd5ONpfvqQWO-F-50">
          <mxGeometry x="-20" y="115.69811320754714" width="1539.00611621252" height="1198.3018867924527" as="geometry" />
        </mxCell>
        <mxCell id="aCHUNYjd5ONpfvqQWO-F-23" style="edgeStyle=orthogonalEdgeStyle;rounded=0;orthogonalLoop=1;jettySize=auto;html=1;exitX=0;exitY=0.75;exitDx=0;exitDy=0;strokeWidth=3;" edge="1" parent="aCHUNYjd5ONpfvqQWO-F-173" source="ft1NnIo1mKDG3LehBfM9-4">
          <mxGeometry relative="1" as="geometry">
            <mxPoint x="484.12701955904015" y="512.3773584905658" as="targetPoint" />
          </mxGeometry>
        </mxCell>
        <mxCell id="aCHUNYjd5ONpfvqQWO-F-51" style="edgeStyle=orthogonalEdgeStyle;rounded=0;orthogonalLoop=1;jettySize=auto;html=1;strokeWidth=3;exitX=0.988;exitY=0.488;exitDx=0;exitDy=0;exitPerimeter=0;" edge="1" parent="aCHUNYjd5ONpfvqQWO-F-173" source="ft1NnIo1mKDG3LehBfM9-4">
          <mxGeometry relative="1" as="geometry">
            <mxPoint x="925.0759130604697" y="477.7212416311625" as="sourcePoint" />
            <mxPoint x="1117.881208624652" y="477.7212416311625" as="targetPoint" />
          </mxGeometry>
        </mxCell>
        <mxCell id="ft1NnIo1mKDG3LehBfM9-4" value="&lt;b&gt;&lt;font style=&quot;font-size: 15px;&quot;&gt;Student&lt;/font&gt;&lt;/b&gt;" style="rounded=0;whiteSpace=wrap;html=1;strokeWidth=3;fillColor=#dae8fc;strokeColor=#6c8ebf;" parent="aCHUNYjd5ONpfvqQWO-F-173" vertex="1">
          <mxGeometry x="732.3656188737522" y="413.2075471698112" width="185.25268605575516" height="132.2264150943396" as="geometry" />
        </mxCell>
        <mxCell id="ft1NnIo1mKDG3LehBfM9-17" value="&lt;b style=&quot;font-weight:normal;&quot; id=&quot;docs-internal-guid-39375290-7fff-3938-4612-e801096b2502&quot;&gt;&lt;span style=&quot;font-size: 11pt; font-family: Arial, sans-serif; color: rgb(0, 0, 0); background-color: transparent; font-weight: 700; font-style: normal; font-variant: normal; text-decoration: none; vertical-align: baseline;&quot;&gt;Students Grade&lt;/span&gt;&lt;/b&gt;" style="text;whiteSpace=wrap;html=1;" parent="aCHUNYjd5ONpfvqQWO-F-173" vertex="1">
          <mxGeometry x="870.6876244620494" y="280.9811320754717" width="172.90250698537147" height="47.932075471698106" as="geometry" />
        </mxCell>
        <mxCell id="aCHUNYjd5ONpfvqQWO-F-38" style="edgeStyle=orthogonalEdgeStyle;rounded=0;orthogonalLoop=1;jettySize=auto;html=1;entryX=0.38;entryY=-0.025;entryDx=0;entryDy=0;entryPerimeter=0;strokeWidth=3;exitX=0.168;exitY=0.991;exitDx=0;exitDy=0;exitPerimeter=0;" edge="1" parent="aCHUNYjd5ONpfvqQWO-F-173" source="ft1NnIo1mKDG3LehBfM9-15" target="ft1NnIo1mKDG3LehBfM9-4">
          <mxGeometry relative="1" as="geometry">
            <mxPoint x="802.761639574939" y="380.15094339622635" as="targetPoint" />
            <mxPoint x="919.2333283464037" y="89.87930614729156" as="sourcePoint" />
            <Array as="points">
              <mxPoint x="916.3120359893707" y="158.75833840535608" />
              <mxPoint x="802.3816340650811" y="158.75833840535608" />
            </Array>
          </mxGeometry>
        </mxCell>
        <mxCell id="ft1NnIo1mKDG3LehBfM9-21" value="&lt;b style=&quot;font-weight:normal;&quot; id=&quot;docs-internal-guid-5a6dc2d1-7fff-d2d0-395e-1e1ae18f7ee9&quot;&gt;&lt;span style=&quot;font-size: 11pt; font-family: Arial, sans-serif; color: rgb(0, 0, 0); background-color: transparent; font-weight: 700; font-style: normal; font-variant: normal; text-decoration: none; vertical-align: baseline;&quot;&gt;Subjects Available&lt;/span&gt;&lt;/b&gt;" style="text;whiteSpace=wrap;html=1;" parent="aCHUNYjd5ONpfvqQWO-F-173" vertex="1">
          <mxGeometry x="732.3679939081887" y="99.1726771150335" width="144.01971320172996" height="28.855016129032254" as="geometry" />
        </mxCell>
        <mxCell id="ft1NnIo1mKDG3LehBfM9-22" value="P 2.0" style="swimlane;childLayout=stackLayout;horizontal=1;startSize=50;horizontalStack=0;rounded=1;fontSize=14;fontStyle=0;strokeWidth=3;resizeParent=0;resizeLast=1;shadow=0;dashed=0;align=center;arcSize=4;whiteSpace=wrap;html=1;fillColor=#e1d5e7;strokeColor=#9673a6;" parent="aCHUNYjd5ONpfvqQWO-F-173" vertex="1">
          <mxGeometry x="286.5241544329013" y="378.49811320754714" width="197.60286512613885" height="198.3396226415094" as="geometry">
            <mxRectangle x="70" y="100" width="80" height="50" as="alternateBounds" />
          </mxGeometry>
        </mxCell>
        <mxCell id="ft1NnIo1mKDG3LehBfM9-23" value="&lt;span style=&quot;font-size: 15px;&quot;&gt;&lt;b&gt;Manage Account&amp;nbsp;&lt;br&gt;Balances&lt;br&gt;&lt;/b&gt;&lt;/span&gt;" style="text;html=1;align=center;verticalAlign=middle;resizable=0;points=[];autosize=1;strokeColor=none;fillColor=none;" parent="ft1NnIo1mKDG3LehBfM9-22" vertex="1">
          <mxGeometry y="50" width="197.60286512613885" height="148.3396226415094" as="geometry" />
        </mxCell>
        <mxCell id="aCHUNYjd5ONpfvqQWO-F-26" style="edgeStyle=orthogonalEdgeStyle;rounded=0;orthogonalLoop=1;jettySize=auto;html=1;exitX=1;exitY=0.25;exitDx=0;exitDy=0;entryX=0.117;entryY=0.986;entryDx=0;entryDy=0;entryPerimeter=0;strokeWidth=3;" edge="1" parent="aCHUNYjd5ONpfvqQWO-F-173" source="ft1NnIo1mKDG3LehBfM9-29" target="ft1NnIo1mKDG3LehBfM9-4">
          <mxGeometry relative="1" as="geometry" />
        </mxCell>
        <mxCell id="ft1NnIo1mKDG3LehBfM9-29" value="P 3.0" style="swimlane;childLayout=stackLayout;horizontal=1;startSize=50;horizontalStack=0;rounded=1;fontSize=14;fontStyle=0;strokeWidth=3;resizeParent=0;resizeLast=1;shadow=0;dashed=0;align=center;arcSize=4;whiteSpace=wrap;html=1;fillColor=#e1d5e7;strokeColor=#9673a6;" parent="aCHUNYjd5ONpfvqQWO-F-173" vertex="1">
          <mxGeometry x="286.5241544329013" y="694.1886792452829" width="222.30322326690623" height="198.3396226415094" as="geometry">
            <mxRectangle x="70" y="100" width="80" height="50" as="alternateBounds" />
          </mxGeometry>
        </mxCell>
        <mxCell id="ft1NnIo1mKDG3LehBfM9-30" value="&lt;span style=&quot;font-size: 15px;&quot;&gt;&lt;b&gt;Produce Reports&lt;/b&gt;&lt;/span&gt;" style="text;html=1;align=center;verticalAlign=middle;resizable=0;points=[];autosize=1;strokeColor=none;fillColor=none;" parent="ft1NnIo1mKDG3LehBfM9-29" vertex="1">
          <mxGeometry y="50" width="222.30322326690623" height="148.3396226415094" as="geometry" />
        </mxCell>
        <mxCell id="ft1NnIo1mKDG3LehBfM9-32" style="edgeStyle=orthogonalEdgeStyle;rounded=0;orthogonalLoop=1;jettySize=auto;html=1;strokeWidth=3;entryX=0.317;entryY=0.992;entryDx=0;entryDy=0;entryPerimeter=0;" parent="aCHUNYjd5ONpfvqQWO-F-173" source="ft1NnIo1mKDG3LehBfM9-30" target="ft1NnIo1mKDG3LehBfM9-4" edge="1">
          <mxGeometry relative="1" as="geometry" />
        </mxCell>
        <mxCell id="ft1NnIo1mKDG3LehBfM9-33" value="&lt;b style=&quot;font-weight:normal;&quot; id=&quot;docs-internal-guid-5a6dc2d1-7fff-d2d0-395e-1e1ae18f7ee9&quot;&gt;&lt;span style=&quot;font-size: 11pt; font-family: Arial, sans-serif; color: rgb(0, 0, 0); background-color: transparent; font-weight: 700; font-style: normal; font-variant: normal; text-decoration: none; vertical-align: baseline;&quot;&gt;Request Balance&lt;/span&gt;&lt;/b&gt;" style="text;whiteSpace=wrap;html=1;rotation=0;" parent="aCHUNYjd5ONpfvqQWO-F-173" vertex="1">
          <mxGeometry x="543.407879096882" y="525.5999999999999" width="197.60286512613885" height="66.1132075471698" as="geometry" />
        </mxCell>
        <mxCell id="ft1NnIo1mKDG3LehBfM9-34" value="" style="group;strokeWidth=3;fillColor=#d5e8d4;strokeColor=#82b366;" parent="aCHUNYjd5ONpfvqQWO-F-173" vertex="1" connectable="0">
          <mxGeometry y="595.0188679245282" width="222.30322326690623" height="115.69811320754714" as="geometry" />
        </mxCell>
        <mxCell id="ft1NnIo1mKDG3LehBfM9-35" value="&lt;span style=&quot;font-size: 16px;&quot;&gt;&lt;b&gt;DS 1&lt;br&gt;Students&lt;br&gt;Wela Account&lt;br&gt;&lt;/b&gt;&lt;/span&gt;" style="shape=partialRectangle;whiteSpace=wrap;html=1;left=0;right=0;fillColor=#d5e8d4;strokeWidth=3;strokeColor=#82b366;" parent="ft1NnIo1mKDG3LehBfM9-34" vertex="1">
          <mxGeometry x="-74.10107442230208" width="296.4042976892083" height="115.69811320754714" as="geometry" />
        </mxCell>
        <mxCell id="ft1NnIo1mKDG3LehBfM9-36" value="" style="endArrow=none;html=1;rounded=0;exitX=0.25;exitY=1;exitDx=0;exitDy=0;entryX=0.25;entryY=0;entryDx=0;entryDy=0;strokeWidth=3;" parent="ft1NnIo1mKDG3LehBfM9-34" source="ft1NnIo1mKDG3LehBfM9-35" target="ft1NnIo1mKDG3LehBfM9-35" edge="1">
          <mxGeometry width="50" height="50" relative="1" as="geometry">
            <mxPoint x="231.56585756969397" y="173.54716981132069" as="sourcePoint" />
            <mxPoint x="324.1922005975715" y="49.58490566037734" as="targetPoint" />
          </mxGeometry>
        </mxCell>
        <mxCell id="ft1NnIo1mKDG3LehBfM9-37" value="" style="endArrow=none;html=1;rounded=0;exitX=0;exitY=1;exitDx=0;exitDy=0;entryX=0;entryY=0;entryDx=0;entryDy=0;strokeWidth=3;" parent="ft1NnIo1mKDG3LehBfM9-34" source="ft1NnIo1mKDG3LehBfM9-35" target="ft1NnIo1mKDG3LehBfM9-35" edge="1">
          <mxGeometry width="50" height="50" relative="1" as="geometry">
            <mxPoint x="74.10107442230205" y="173.54716981132069" as="sourcePoint" />
            <mxPoint x="74.10107442230205" y="24.79245283018867" as="targetPoint" />
          </mxGeometry>
        </mxCell>
        <mxCell id="ft1NnIo1mKDG3LehBfM9-31" style="edgeStyle=orthogonalEdgeStyle;rounded=0;orthogonalLoop=1;jettySize=auto;html=1;exitX=0.328;exitY=1.01;exitDx=0;exitDy=0;strokeWidth=3;entryX=0;entryY=0.429;entryDx=0;entryDy=0;entryPerimeter=0;exitPerimeter=0;" parent="aCHUNYjd5ONpfvqQWO-F-173" source="ft1NnIo1mKDG3LehBfM9-35" target="ft1NnIo1mKDG3LehBfM9-30" edge="1">
          <mxGeometry relative="1" as="geometry">
            <mxPoint x="175.3725427994482" y="834.6792452830186" as="targetPoint" />
            <Array as="points">
              <mxPoint x="23" y="808" />
            </Array>
          </mxGeometry>
        </mxCell>
        <mxCell id="aCHUNYjd5ONpfvqQWO-F-25" style="edgeStyle=orthogonalEdgeStyle;rounded=0;orthogonalLoop=1;jettySize=auto;html=1;entryX=0.5;entryY=0;entryDx=0;entryDy=0;strokeWidth=3;exitX=0.008;exitY=0.298;exitDx=0;exitDy=0;exitPerimeter=0;" edge="1" parent="aCHUNYjd5ONpfvqQWO-F-173" source="ft1NnIo1mKDG3LehBfM9-23" target="ft1NnIo1mKDG3LehBfM9-35">
          <mxGeometry relative="1" as="geometry">
            <mxPoint x="284.05411861882465" y="495.8490566037735" as="sourcePoint" />
          </mxGeometry>
        </mxCell>
        <mxCell id="ft1NnIo1mKDG3LehBfM9-38" value="&lt;font face=&quot;Arial, sans-serif&quot;&gt;&lt;span style=&quot;font-size: 14.6667px;&quot;&gt;&lt;b&gt;Balance Data&lt;/b&gt;&lt;/span&gt;&lt;/font&gt;" style="text;whiteSpace=wrap;html=1;" parent="aCHUNYjd5ONpfvqQWO-F-173" vertex="1">
          <mxGeometry x="88.92128930676249" y="510.7245283018868" width="197.60286512613885" height="66.1132075471698" as="geometry" />
        </mxCell>
        <mxCell id="ft1NnIo1mKDG3LehBfM9-40" value="&lt;font face=&quot;Arial, sans-serif&quot;&gt;&lt;span style=&quot;font-size: 14.6667px;&quot;&gt;&lt;b&gt;Balance Reports&lt;/b&gt;&lt;/span&gt;&lt;/font&gt;" style="text;whiteSpace=wrap;html=1;" parent="aCHUNYjd5ONpfvqQWO-F-173" vertex="1">
          <mxGeometry x="565.6382014235726" y="677.6603773584905" width="197.60286512613885" height="66.1132075471698" as="geometry" />
        </mxCell>
        <mxCell id="ft1NnIo1mKDG3LehBfM9-46" value="&lt;font face=&quot;Arial, sans-serif&quot;&gt;&lt;span style=&quot;font-size: 14.6667px;&quot;&gt;&lt;b&gt;Payment&lt;/b&gt;&lt;/span&gt;&lt;/font&gt;" style="text;whiteSpace=wrap;html=1;" parent="aCHUNYjd5ONpfvqQWO-F-173" vertex="1">
          <mxGeometry x="617.5089535191839" y="310.732075471698" width="197.60286512613885" height="66.1132075471698" as="geometry" />
        </mxCell>
        <mxCell id="ft1NnIo1mKDG3LehBfM9-50" value="&lt;b&gt;&lt;font style=&quot;font-size: 15px;&quot;&gt;Accounting Office&lt;/font&gt;&lt;/b&gt;" style="rounded=0;whiteSpace=wrap;html=1;strokeWidth=3;fillColor=#dae8fc;strokeColor=#6c8ebf;" parent="aCHUNYjd5ONpfvqQWO-F-173" vertex="1">
          <mxGeometry x="234.6534023372899" y="1082.6037735849056" width="222.30322326690623" height="115.69811320754714" as="geometry" />
        </mxCell>
        <mxCell id="aCHUNYjd5ONpfvqQWO-F-34" style="edgeStyle=orthogonalEdgeStyle;rounded=0;orthogonalLoop=1;jettySize=auto;html=1;entryX=0.737;entryY=0;entryDx=0;entryDy=0;entryPerimeter=0;strokeWidth=3;" edge="1" parent="aCHUNYjd5ONpfvqQWO-F-173" source="ft1NnIo1mKDG3LehBfM9-29" target="ft1NnIo1mKDG3LehBfM9-50">
          <mxGeometry relative="1" as="geometry" />
        </mxCell>
        <mxCell id="ft1NnIo1mKDG3LehBfM9-58" value="&lt;span style=&quot;font-size: 15px;&quot;&gt;&lt;b&gt;Remaining Bills&lt;/b&gt;&lt;/span&gt;" style="text;whiteSpace=wrap;html=1;" parent="aCHUNYjd5ONpfvqQWO-F-173" vertex="1">
          <mxGeometry x="37.05053721115104" y="148.75471698113205" width="197.60286512613885" height="66.1132075471698" as="geometry" />
        </mxCell>
        <mxCell id="aCHUNYjd5ONpfvqQWO-F-1" value="P 5.0" style="swimlane;childLayout=stackLayout;horizontal=1;startSize=50;horizontalStack=0;rounded=1;fontSize=14;fontStyle=0;strokeWidth=3;resizeParent=0;resizeLast=1;shadow=0;dashed=0;align=center;arcSize=4;whiteSpace=wrap;html=1;fillColor=#e1d5e7;strokeColor=#9673a6;" vertex="1" parent="aCHUNYjd5ONpfvqQWO-F-173">
          <mxGeometry x="745.3333068976551" y="958.6415094339621" width="197.60286512613885" height="198.3396226415094" as="geometry">
            <mxRectangle x="70" y="100" width="80" height="50" as="alternateBounds" />
          </mxGeometry>
        </mxCell>
        <mxCell id="aCHUNYjd5ONpfvqQWO-F-2" value="&lt;span style=&quot;font-size: 15px;&quot;&gt;&lt;b&gt;Arranging &lt;br&gt;Schedules&lt;/b&gt;&lt;/span&gt;" style="text;html=1;align=center;verticalAlign=middle;resizable=0;points=[];autosize=1;strokeColor=none;fillColor=none;" vertex="1" parent="aCHUNYjd5ONpfvqQWO-F-1">
          <mxGeometry y="50" width="197.60286512613885" height="148.3396226415094" as="geometry" />
        </mxCell>
        <mxCell id="aCHUNYjd5ONpfvqQWO-F-4" value="&lt;font face=&quot;Arial, sans-serif&quot;&gt;&lt;span style=&quot;font-size: 15px;&quot;&gt;&lt;b&gt;Input Chosen Subjects&lt;/b&gt;&lt;/span&gt;&lt;/font&gt;" style="text;whiteSpace=wrap;html=1;" vertex="1" parent="aCHUNYjd5ONpfvqQWO-F-173">
          <mxGeometry x="876.8627139972413" y="809.8867924528299" width="160.5523279149878" height="66.1132075471698" as="geometry" />
        </mxCell>
        <mxCell id="aCHUNYjd5ONpfvqQWO-F-8" value="" style="group;fillColor=#d5e8d4;strokeColor=#82b366;" vertex="1" connectable="0" parent="aCHUNYjd5ONpfvqQWO-F-173">
          <mxGeometry x="1123.8662954049148" y="1041.2830188679243" width="296.4042976892083" height="132.2264150943396" as="geometry" />
        </mxCell>
        <mxCell id="aCHUNYjd5ONpfvqQWO-F-6" value="&lt;span style=&quot;font-size: 16px;&quot;&gt;&lt;u&gt;DS 2&lt;/u&gt;&lt;br&gt;&lt;b&gt;Pending &lt;/b&gt;&lt;br&gt;&lt;b&gt;Approval of&lt;/b&gt;&lt;br&gt;&lt;b&gt;Subjects&lt;/b&gt;&lt;br&gt;&lt;/span&gt;" style="shape=partialRectangle;whiteSpace=wrap;html=1;left=0;right=0;fillColor=none;strokeWidth=3;" vertex="1" parent="aCHUNYjd5ONpfvqQWO-F-8">
          <mxGeometry width="296.4042976892083" height="132.2264150943396" as="geometry" />
        </mxCell>
        <mxCell id="aCHUNYjd5ONpfvqQWO-F-7" value="" style="shape=partialRectangle;whiteSpace=wrap;html=1;top=0;bottom=0;fillColor=none;strokeWidth=3;" vertex="1" parent="aCHUNYjd5ONpfvqQWO-F-8">
          <mxGeometry width="86.45125349268574" height="132.2264150943396" as="geometry" />
        </mxCell>
        <mxCell id="aCHUNYjd5ONpfvqQWO-F-13" value="&lt;font face=&quot;Arial, sans-serif&quot;&gt;&lt;span style=&quot;font-size: 15px;&quot;&gt;&lt;b&gt;List of Subjects and Schedules&lt;/b&gt;&lt;/span&gt;&lt;/font&gt;" style="text;whiteSpace=wrap;html=1;" vertex="1" parent="aCHUNYjd5ONpfvqQWO-F-173">
          <mxGeometry x="950.9637884195433" y="1107.3962264150941" width="148.20214884460415" height="66.1132075471698" as="geometry" />
        </mxCell>
        <mxCell id="aCHUNYjd5ONpfvqQWO-F-44" style="edgeStyle=orthogonalEdgeStyle;rounded=0;orthogonalLoop=1;jettySize=auto;html=1;exitX=0;exitY=0.25;exitDx=0;exitDy=0;entryX=0.938;entryY=1.005;entryDx=0;entryDy=0;entryPerimeter=0;strokeWidth=3;" edge="1" parent="aCHUNYjd5ONpfvqQWO-F-173" source="aCHUNYjd5ONpfvqQWO-F-14" target="ft1NnIo1mKDG3LehBfM9-4">
          <mxGeometry relative="1" as="geometry" />
        </mxCell>
        <mxCell id="aCHUNYjd5ONpfvqQWO-F-14" value="P 6.0" style="swimlane;childLayout=stackLayout;horizontal=1;startSize=50;horizontalStack=0;rounded=1;fontSize=14;fontStyle=0;strokeWidth=3;resizeParent=0;resizeLast=1;shadow=0;dashed=0;align=center;arcSize=4;whiteSpace=wrap;html=1;fillColor=#e1d5e7;strokeColor=#9673a6;" vertex="1" parent="aCHUNYjd5ONpfvqQWO-F-173">
          <mxGeometry x="1173.2670116864495" y="677.6603773584905" width="197.60286512613885" height="198.3396226415094" as="geometry">
            <mxRectangle x="70" y="100" width="80" height="50" as="alternateBounds" />
          </mxGeometry>
        </mxCell>
        <mxCell id="aCHUNYjd5ONpfvqQWO-F-15" value="&lt;span style=&quot;font-size: 15px;&quot;&gt;&lt;b&gt;Printing Copy &lt;br&gt;of&amp;nbsp; Approved &lt;br&gt;Subjects&lt;/b&gt;&lt;/span&gt;" style="text;html=1;align=center;verticalAlign=middle;resizable=0;points=[];autosize=1;strokeColor=none;fillColor=none;" vertex="1" parent="aCHUNYjd5ONpfvqQWO-F-14">
          <mxGeometry y="50" width="197.60286512613885" height="148.3396226415094" as="geometry" />
        </mxCell>
        <mxCell id="aCHUNYjd5ONpfvqQWO-F-20" value="&lt;font face=&quot;Arial, sans-serif&quot;&gt;&lt;span style=&quot;font-size: 15px;&quot;&gt;&lt;b&gt;Certificate of Registration&lt;/b&gt;&lt;/span&gt;&lt;/font&gt;" style="text;whiteSpace=wrap;html=1;rotation=0;" vertex="1" parent="aCHUNYjd5ONpfvqQWO-F-173">
          <mxGeometry x="944.1714274342759" y="677.6611771150334" width="161.79090837368113" height="39.123290322580644" as="geometry" />
        </mxCell>
        <mxCell id="aCHUNYjd5ONpfvqQWO-F-21" value="&lt;font face=&quot;Arial, sans-serif&quot;&gt;&lt;span style=&quot;font-size: 14.6667px;&quot;&gt;&lt;b&gt;Accounts Recievables&lt;/b&gt;&lt;/span&gt;&lt;/font&gt;" style="text;whiteSpace=wrap;html=1;" vertex="1" parent="aCHUNYjd5ONpfvqQWO-F-173">
          <mxGeometry x="24.7" y="842.95" width="197.6" height="37.05" as="geometry" />
        </mxCell>
        <mxCell id="aCHUNYjd5ONpfvqQWO-F-22" value="&lt;font face=&quot;Arial, sans-serif&quot;&gt;&lt;span style=&quot;font-size: 14.6667px;&quot;&gt;&lt;b&gt;Students Accounts Bills Reports&lt;/b&gt;&lt;/span&gt;&lt;/font&gt;" style="text;whiteSpace=wrap;html=1;" vertex="1" parent="aCHUNYjd5ONpfvqQWO-F-173">
          <mxGeometry x="222.30322326690623" y="958.6415094339621" width="197.60286512613885" height="66.1132075471698" as="geometry" />
        </mxCell>
        <mxCell id="aCHUNYjd5ONpfvqQWO-F-42" style="edgeStyle=orthogonalEdgeStyle;rounded=0;orthogonalLoop=1;jettySize=auto;html=1;exitX=0.75;exitY=1;exitDx=0;exitDy=0;strokeWidth=3;entryX=0.639;entryY=-0.01;entryDx=0;entryDy=0;entryPerimeter=0;" edge="1" parent="aCHUNYjd5ONpfvqQWO-F-173" source="ft1NnIo1mKDG3LehBfM9-4" target="aCHUNYjd5ONpfvqQWO-F-1">
          <mxGeometry relative="1" as="geometry">
            <mxPoint x="865.7475528338958" y="961.9471698113206" as="targetPoint" />
          </mxGeometry>
        </mxCell>
        <mxCell id="aCHUNYjd5ONpfvqQWO-F-29" style="edgeStyle=orthogonalEdgeStyle;rounded=0;orthogonalLoop=1;jettySize=auto;html=1;exitX=0.5;exitY=1;exitDx=0;exitDy=0;entryX=0.004;entryY=0.372;entryDx=0;entryDy=0;entryPerimeter=0;strokeWidth=3;" edge="1" parent="aCHUNYjd5ONpfvqQWO-F-173" source="ft1NnIo1mKDG3LehBfM9-35" target="ft1NnIo1mKDG3LehBfM9-29">
          <mxGeometry relative="1" as="geometry" />
        </mxCell>
        <mxCell id="aCHUNYjd5ONpfvqQWO-F-32" value="&lt;font face=&quot;Arial, sans-serif&quot;&gt;&lt;span style=&quot;font-size: 14.6667px;&quot;&gt;&lt;b&gt;Accounts Recievables&lt;/b&gt;&lt;/span&gt;&lt;/font&gt;" style="text;whiteSpace=wrap;html=1;" vertex="1" parent="aCHUNYjd5ONpfvqQWO-F-173">
          <mxGeometry x="74.10107442230208" y="710.7169811320753" width="197.60286512613885" height="66.1132075471698" as="geometry" />
        </mxCell>
        <mxCell id="aCHUNYjd5ONpfvqQWO-F-39" value="P 4.0" style="swimlane;childLayout=stackLayout;horizontal=1;startSize=50;horizontalStack=0;rounded=1;fontSize=14;fontStyle=0;strokeWidth=3;resizeParent=0;resizeLast=1;shadow=0;dashed=0;align=center;arcSize=4;whiteSpace=wrap;html=1;fillColor=#e1d5e7;strokeColor=#9673a6;" vertex="1" parent="aCHUNYjd5ONpfvqQWO-F-173">
          <mxGeometry x="508.8273776998076" width="197.60286512613885" height="198.3396226415094" as="geometry">
            <mxRectangle x="70" y="100" width="80" height="50" as="alternateBounds" />
          </mxGeometry>
        </mxCell>
        <mxCell id="aCHUNYjd5ONpfvqQWO-F-40" value="&lt;span style=&quot;font-size: 15px;&quot;&gt;&lt;b&gt;Manage Account&amp;nbsp;&lt;br&gt;Bills&lt;br&gt;&lt;/b&gt;&lt;/span&gt;" style="text;html=1;align=center;verticalAlign=middle;resizable=0;points=[];autosize=1;strokeColor=none;fillColor=none;" vertex="1" parent="aCHUNYjd5ONpfvqQWO-F-39">
          <mxGeometry y="50" width="197.60286512613885" height="148.3396226415094" as="geometry" />
        </mxCell>
        <mxCell id="aCHUNYjd5ONpfvqQWO-F-43" style="edgeStyle=orthogonalEdgeStyle;rounded=0;orthogonalLoop=1;jettySize=auto;html=1;strokeWidth=3;" edge="1" parent="aCHUNYjd5ONpfvqQWO-F-173" source="aCHUNYjd5ONpfvqQWO-F-2">
          <mxGeometry relative="1" as="geometry">
            <mxPoint x="1120" y="1082.301886792453" as="targetPoint" />
          </mxGeometry>
        </mxCell>
        <mxCell id="aCHUNYjd5ONpfvqQWO-F-45" style="edgeStyle=orthogonalEdgeStyle;rounded=0;orthogonalLoop=1;jettySize=auto;html=1;exitX=0.5;exitY=0;exitDx=0;exitDy=0;strokeWidth=3;" edge="1" parent="aCHUNYjd5ONpfvqQWO-F-173" source="aCHUNYjd5ONpfvqQWO-F-6">
          <mxGeometry relative="1" as="geometry">
            <mxPoint x="1270.7621753093822" y="869.8018867924527" as="targetPoint" />
          </mxGeometry>
        </mxCell>
        <mxCell id="aCHUNYjd5ONpfvqQWO-F-46" value="&lt;font face=&quot;Arial, sans-serif&quot;&gt;&lt;span style=&quot;font-size: 15px;&quot;&gt;&lt;b&gt;Approved Copy of Subjects and Schedule&lt;/b&gt;&lt;/span&gt;&lt;/font&gt;" style="text;whiteSpace=wrap;html=1;" vertex="1" parent="aCHUNYjd5ONpfvqQWO-F-173">
          <mxGeometry x="1284.4186233199025" y="925.5849056603771" width="234.6534023372899" height="66.1132075471698" as="geometry" />
        </mxCell>
        <mxCell id="aCHUNYjd5ONpfvqQWO-F-48" value="P 7.0" style="swimlane;childLayout=stackLayout;horizontal=1;startSize=50;horizontalStack=0;rounded=1;fontSize=14;fontStyle=0;strokeWidth=3;resizeParent=0;resizeLast=1;shadow=0;dashed=0;align=center;arcSize=4;whiteSpace=wrap;html=1;fillColor=#e1d5e7;strokeColor=#9673a6;" vertex="1" parent="aCHUNYjd5ONpfvqQWO-F-173">
          <mxGeometry x="1114.95611621252" y="363.62264150943395" width="197.60286512613885" height="198.3396226415094" as="geometry">
            <mxRectangle x="70" y="100" width="80" height="50" as="alternateBounds" />
          </mxGeometry>
        </mxCell>
        <mxCell id="aCHUNYjd5ONpfvqQWO-F-54" value="&lt;span style=&quot;font-size: 15px;&quot;&gt;&lt;b&gt;Sign the Certificate&lt;br&gt;&lt;/b&gt;&lt;/span&gt;" style="text;html=1;align=center;verticalAlign=middle;resizable=0;points=[];autosize=1;strokeColor=none;fillColor=none;" vertex="1" parent="aCHUNYjd5ONpfvqQWO-F-48">
          <mxGeometry y="50" width="197.60286512613885" height="148.3396226415094" as="geometry" />
        </mxCell>
        <mxCell id="ft1NnIo1mKDG3LehBfM9-24" style="edgeStyle=orthogonalEdgeStyle;rounded=0;orthogonalLoop=1;jettySize=auto;html=1;exitX=0;exitY=0.25;exitDx=0;exitDy=0;strokeWidth=3;" parent="aCHUNYjd5ONpfvqQWO-F-173" source="ft1NnIo1mKDG3LehBfM9-4" target="aCHUNYjd5ONpfvqQWO-F-40" edge="1">
          <mxGeometry relative="1" as="geometry">
            <mxPoint x="496.4771986294239" y="446.26415094339615" as="targetPoint" />
          </mxGeometry>
        </mxCell>
        <mxCell id="ft1NnIo1mKDG3LehBfM9-26" style="edgeStyle=orthogonalEdgeStyle;rounded=0;orthogonalLoop=1;jettySize=auto;html=1;strokeWidth=3;entryX=0.325;entryY=0;entryDx=0;entryDy=0;entryPerimeter=0;exitX=0.014;exitY=0.443;exitDx=0;exitDy=0;exitPerimeter=0;" parent="aCHUNYjd5ONpfvqQWO-F-173" source="aCHUNYjd5ONpfvqQWO-F-40" target="ft1NnIo1mKDG3LehBfM9-35" edge="1">
          <mxGeometry relative="1" as="geometry">
            <mxPoint x="12.350179070383678" y="578.4905660377358" as="targetPoint" />
            <mxPoint x="518.7075209561145" y="132.2264150943396" as="sourcePoint" />
          </mxGeometry>
        </mxCell>
        <mxCell id="aCHUNYjd5ONpfvqQWO-F-52" value="&lt;font face=&quot;Arial, sans-serif&quot;&gt;&lt;span style=&quot;font-size: 15px;&quot;&gt;&lt;b&gt;Cert. of registration&lt;/b&gt;&lt;/span&gt;&lt;/font&gt;" style="text;whiteSpace=wrap;html=1;rotation=0;" vertex="1" parent="aCHUNYjd5ONpfvqQWO-F-173">
          <mxGeometry x="929.9642089379051" y="482.35446743761406" width="161.79090837368113" height="39.123290322580644" as="geometry" />
        </mxCell>
        <mxCell id="aCHUNYjd5ONpfvqQWO-F-284" value="&lt;font face=&quot;Arial, sans-serif&quot;&gt;&lt;span style=&quot;font-size: 15px;&quot;&gt;&lt;b&gt;Signed CoR&lt;/b&gt;&lt;/span&gt;&lt;/font&gt;" style="text;whiteSpace=wrap;html=1;rotation=0;" vertex="1" parent="aCHUNYjd5ONpfvqQWO-F-173">
          <mxGeometry x="1330.004208937905" y="443.23446743761406" width="161.79090837368113" height="39.123290322580644" as="geometry" />
        </mxCell>
        <mxCell id="aCHUNYjd5ONpfvqQWO-F-426" value="P 8.0" style="swimlane;childLayout=stackLayout;horizontal=1;startSize=50;horizontalStack=0;rounded=1;fontSize=14;fontStyle=0;strokeWidth=3;resizeParent=0;resizeLast=1;shadow=0;dashed=0;align=center;arcSize=4;whiteSpace=wrap;html=1;fillColor=#e1d5e7;strokeColor=#9673a6;" vertex="1" parent="aCHUNYjd5ONpfvqQWO-F-173">
          <mxGeometry x="1340.00611621252" y="24.30264150943401" width="199" height="198.3396226415094" as="geometry">
            <mxRectangle x="70" y="100" width="80" height="50" as="alternateBounds" />
          </mxGeometry>
        </mxCell>
        <mxCell id="aCHUNYjd5ONpfvqQWO-F-427" value="&lt;span style=&quot;font-size: 15px;&quot;&gt;&lt;b&gt;Stamping (Enrolled) &lt;br&gt;the COR&lt;br&gt;&lt;/b&gt;&lt;/span&gt;" style="text;html=1;align=center;verticalAlign=middle;resizable=0;points=[];autosize=1;strokeColor=none;fillColor=none;" vertex="1" parent="aCHUNYjd5ONpfvqQWO-F-426">
          <mxGeometry y="50" width="199" height="148.3396226415094" as="geometry" />
        </mxCell>
        <mxCell id="aCHUNYjd5ONpfvqQWO-F-432" style="edgeStyle=orthogonalEdgeStyle;rounded=0;orthogonalLoop=1;jettySize=auto;html=1;entryX=1;entryY=0;entryDx=0;entryDy=0;strokeWidth=3;" edge="1" parent="aCHUNYjd5ONpfvqQWO-F-173" source="aCHUNYjd5ONpfvqQWO-F-427" target="ft1NnIo1mKDG3LehBfM9-4">
          <mxGeometry relative="1" as="geometry">
            <Array as="points">
              <mxPoint x="1060" y="184" />
              <mxPoint x="1060" y="413" />
            </Array>
          </mxGeometry>
        </mxCell>
        <mxCell id="aCHUNYjd5ONpfvqQWO-F-437" value="&lt;font face=&quot;Arial, sans-serif&quot;&gt;&lt;span style=&quot;font-size: 15px;&quot;&gt;&lt;b&gt;Stamped COR&lt;/b&gt;&lt;/span&gt;&lt;/font&gt;" style="text;whiteSpace=wrap;html=1;rotation=0;" vertex="1" parent="aCHUNYjd5ONpfvqQWO-F-173">
          <mxGeometry x="1070.004208937905" y="198.34446743761407" width="161.79090837368113" height="39.123290322580644" as="geometry" />
        </mxCell>
        <mxCell id="aCHUNYjd5ONpfvqQWO-F-430" style="edgeStyle=orthogonalEdgeStyle;rounded=0;orthogonalLoop=1;jettySize=auto;html=1;exitX=0.5;exitY=0;exitDx=0;exitDy=0;entryX=0.639;entryY=1.018;entryDx=0;entryDy=0;entryPerimeter=0;strokeWidth=3;" edge="1" parent="aCHUNYjd5ONpfvqQWO-F-50" source="aCHUNYjd5ONpfvqQWO-F-425" target="aCHUNYjd5ONpfvqQWO-F-427">
          <mxGeometry relative="1" as="geometry" />
        </mxCell>
        <mxCell id="aCHUNYjd5ONpfvqQWO-F-425" value="&lt;span style=&quot;font-size: 15px;&quot;&gt;&lt;b&gt;Registrar&lt;/b&gt;&lt;/span&gt;" style="rounded=0;whiteSpace=wrap;html=1;strokeWidth=3;fillColor=#dae8fc;strokeColor=#6c8ebf;" vertex="1" parent="aCHUNYjd5ONpfvqQWO-F-50">
          <mxGeometry x="1489.9956188737522" y="529.9956603773584" width="185.25268605575516" height="132.2264150943396" as="geometry" />
        </mxCell>
        <mxCell id="aCHUNYjd5ONpfvqQWO-F-438" value="&lt;font face=&quot;Arial, sans-serif&quot;&gt;&lt;span style=&quot;font-size: 15px;&quot;&gt;&lt;b&gt;Verifying the Data in the COR&lt;/b&gt;&lt;/span&gt;&lt;/font&gt;" style="text;whiteSpace=wrap;html=1;rotation=0;" vertex="1" parent="aCHUNYjd5ONpfvqQWO-F-50">
          <mxGeometry x="1500.004208937905" y="390.0025806451613" width="161.79090837368113" height="39.123290322580644" as="geometry" />
        </mxCell>
        <mxCell id="ft1NnIo1mKDG3LehBfM9-49" value="&lt;font size=&quot;1&quot; face=&quot;Arial, sans-serif&quot;&gt;&lt;b style=&quot;font-size: 15px;&quot;&gt;Payments Receipt&lt;/b&gt;&lt;/font&gt;" style="text;whiteSpace=wrap;html=1;rotation=0;" parent="1" vertex="1">
          <mxGeometry x="-611.69" y="212.10811320754726" width="179.7" height="37.06" as="geometry" />
        </mxCell>
      </root>
    </mxGraphModel>
  </diagram>
</mxfile>
